<svg width="24" height="24" viewBox="0 0 24 24" fill="currentColor" xmlns="http://www.w3.org/2000/svg">
<g clip-path="url(#clip0_3800_15615)">
<path d="M14 14H10V21H14V14Z" fill="#397DF6"/>
<path d="M20.42 10.1802L12.71 2.30019C12.617 2.20646 12.5064 2.13207 12.3846 2.0813C12.2627 2.03053 12.132 2.00439 12 2.00439C11.868 2.00439 11.7373 2.03053 11.6154 2.0813C11.4936 2.13207 11.383 2.20646 11.29 2.30019L3.57999 10.1902C3.39343 10.3783 3.24609 10.6015 3.14652 10.847C3.04695 11.0925 2.99715 11.3553 2.99999 11.6202V20.0002C2.99922 20.5121 3.19477 21.0048 3.54637 21.3769C3.89797 21.749 4.37885 21.972 4.88999 22.0002H7.99999V13.0002C7.99999 12.735 8.10535 12.4806 8.29289 12.2931C8.48042 12.1055 8.73478 12.0002 8.99999 12.0002H15C15.2652 12.0002 15.5196 12.1055 15.7071 12.2931C15.8946 12.4806 16 12.735 16 13.0002V22.0002H19.11C19.6211 21.972 20.102 21.749 20.4536 21.3769C20.8052 21.0048 21.0008 20.5121 21 20.0002V11.6202C21.0008 11.0831 20.7928 10.5668 20.42 10.1802Z" fill="#397DF6"/>
</g>
<defs>
<clipPath id="clip0_3800_15615">
<rect width="24" height="24" fill="white"/>
</clipPath>
</defs>
</svg>
